# xmcd
#
# Track frame offsets: 
#        187
#        11512
#        25065
#        40845
#        52647
#        66247
#        79040
#        90175
#        102210
#        115935
#
# Disc length: 1692 seconds
#
# Revision: 3
# Processed by: cddbd v1.5.1PL2 Copyright (c) Steve Scherf et al.
# Submitted via: ExactAudioCopy v0.95b3
#
DISCID=66069a0a
DTITLE=Etta James - The Second Time Around
DYEAR=1961
DGENRE=blues
TTITLE0=Don't Cry Baby
TTITLE1=Fool That I Am
TTITLE2=One For My Baby
TTITLE3=In My Diary
TTITLE4=Seven Day Fool
TTITLE5=It's Too Soon To Know
TTITLE6=Dream
TTITLE7=I'll Dry My Tears
TTITLE8=Plum Nuts
TTITLE9=Don't Get Around Much Anymore
EXTD=
EXTT0=
EXTT1=
EXTT2=
EXTT3=
EXTT4=
EXTT5=
EXTT6=
EXTT7=
EXTT8=
EXTT9=
PLAYORDER=
